<svg version="1.1" id="Layer_1" xmlns="http://www.w3.org/2000/svg" x="0" y="0" viewBox="0 0 34.1 16.9" style="enable-background:new 0 0 34.1 16.9" xml:space="preserve"><style>.st0,.st1{fill-rule:evenodd;clip-rule:evenodd;fill:#29caf3}.st1{fill:#295af3}</style><path class="st0" d="m5.4 15.5-4.1-4.1c-.2-.2-.2-.4 0-.6l4.1-4.1c.2-.2.5-.2.7 0l4 4c.2.2.2.5 0 .7l-4 4c-.2.3-.6.3-.7.1zM11 9.9l-4-4c-.2-.3-.2-.6 0-.8l4-4c.2-.2.5-.2.7 0l4 4c.2.2.2.5 0 .7l-4 4c-.2.2-.5.2-.7.1z"/><path class="st1" d="m16.7 15.4-4-4c-.2-.2-.2-.5 0-.7l4-4c.2-.2.5-.2.7 0l4 4c.2.2.2.5 0 .7l-4 4c-.1.3-.5.3-.7 0zM22.4 9.8l-4-4c-.2-.2-.2-.5 0-.7l4-4c.2-.2.5-.2.7 0l4 4c.2.2.2.5 0 .7l-4 4c-.2.2-.5.2-.7 0z"/><path d="m28.1 15.5-4-4c-.2-.2-.2-.5 0-.7l4-4c.2-.2.5-.2.7 0l4 4c.2.2.2.5 0 .7l-4 4c-.2.2-.5.2-.7 0z" style="fill-rule:evenodd;clip-rule:evenodd;fill:#1b3997"/><path style="fill:#fff;stroke:#000;stroke-miterlimit:10" d="M41.4-148h100v30h-100z"/></svg>